HIERARCHY
ROOT Hips
{
	OFFSET -0.179506 -22.333345 2.821913
	CHANNELS 6 Xposition Yposition Zposition Zrotation Yrotation Xrotation 
	JOINT LeftUpLeg
	{
		OFFSET 6.951974 -9.140623 -0.681533
		CHANNELS 3 Zrotation Yrotation Xrotation
		JOINT LeftLeg
		{
			OFFSET 3.427654 -37.519855 -0.449580
			CHANNELS 3 Zrotation Yrotation Xrotation
			JOINT LeftFoot
			{
				OFFSET -1.359570 -39.796059 -4.369333
				CHANNELS 3 Zrotation Yrotation Xrotation
				JOINT LeftToe
				{
					OFFSET 2.635814 -5.579078 11.928840
					CHANNELS 3 Zrotation Yrotation Xrotation
					End Site
					{
						OFFSET 0.000000 0.000000 0.000000
					}
				}
			}
		}
	}
	JOINT RightUpLeg
	{
		OFFSET -6.767048 -9.052170 -0.431982
		CHANNELS 3 Zrotation Yrotation Xrotation
		JOINT RightLeg
		{
			OFFSET -3.829005 -38.256897 -0.885003
			CHANNELS 3 Zrotation Yrotation Xrotation
			JOINT RightFoot
			{
				OFFSET 1.577377 -39.841461 -4.231180
				CHANNELS 3 Zrotation Yrotation Xrotation
				JOINT RightToe
				{
					OFFSET -2.537174 -4.814398 12.334795
					CHANNELS 3 Zrotation Yrotation Xrotation
					End Site
					{
						OFFSET 0.000000 0.000000 0.000000
					}
				}
			}
		}
	}
	JOINT Spine
	{
		OFFSET -0.253288 10.896323 -2.669631
		CHANNELS 3 Zrotation Yrotation Xrotation
		JOINT Spine1
		{
			OFFSET 0.548704 13.518043 0.109247
			CHANNELS 3 Zrotation Yrotation Xrotation
			JOINT Spine2
			{
				OFFSET 0.145701 5.292222 2.542457
				CHANNELS 3 Zrotation Yrotation Xrotation
				JOINT Neck
				{
					OFFSET -0.277840 21.387037 -4.285703
					CHANNELS 3 Zrotation Yrotation Xrotation
					JOINT Head
					{
						OFFSET 0.515184 6.496960 5.134897
						CHANNELS 3 Zrotation Yrotation Xrotation
						End Site
						{
							OFFSET 0.000000 0.000000 0.000000
						}
					}
				}
				JOINT LeftShoulder
				{
					OFFSET 7.884473 12.174932 -3.408961
					CHANNELS 3 Zrotation Yrotation Xrotation
					JOINT LeftArm
					{
						OFFSET 9.097692 3.046888 -0.886815
						CHANNELS 3 Zrotation Yrotation Xrotation
						JOINT LeftForeArm
						{
							OFFSET 25.961220 -1.277207 -2.745643
							CHANNELS 3 Zrotation Yrotation Xrotation
							JOINT LeftHand
							{
								OFFSET 24.923361 0.898606 -0.117091
								CHANNELS 3 Zrotation Yrotation Xrotation
								End Site
								{
									OFFSET 0.000000 0.000000 0.000000
								}
							}
						}
					}
				}
				JOINT RightShoulder
				{
					OFFSET -8.175920 11.883285 -3.861528
					CHANNELS 3 Zrotation Yrotation Xrotation
					JOINT RightArm
					{
						OFFSET -9.601238 3.255117 -0.914307
						CHANNELS 3 Zrotation Yrotation Xrotation
						JOINT RightForeArm
						{
							OFFSET -25.374195 -1.332924 -2.140099
							CHANNELS 3 Zrotation Yrotation Xrotation
							JOINT RightHand
							{
								OFFSET -25.529810 0.777228 -0.555919
								CHANNELS 3 Zrotation Yrotation Xrotation
								End Site
								{
									OFFSET 0.000000 0.000000 0.000000
								}
							}
						}
					}
				}
			}
		}
	}
}
MOTION
Frames: 9
Frame Time: 0.033333
-38.720341 211.255157 94.525955 -154.411198 -0.878560 86.979180 7.687460 3.529422 -7.255772 -2.924507 11.023180 25.770621 4.363491 13.799578 -22.927399 nan nan nan -5.805764 -3.671500 -7.687348 3.579484 -2.173539 9.782467 2.929137 -0.745125 -14.497103 nan nan nan -0.379910 0.257736 8.057276 2.655898 -6.188931 2.398357 0.502360 -3.033203 -0.354177 1.113359 1.788762 5.070735 2.084399 0.227275 18.225300 -23.991175 -16.439914 3.056473 -54.441773 -27.607361 13.202467 41.282477 -58.662687 -35.297757 7.112152 -2.301729 -37.698605 20.724067 9.387486 3.377194 54.300194 9.711294 20.697638 -83.670458 76.475185 -61.101307 5.597362 8.116879 -19.485855 
-38.916931 211.295914 94.568123 -154.565805 -0.898354 86.884025 7.573076 3.817089 -6.524607 -2.970475 11.188422 24.749228 4.376852 13.835570 -22.739664 nan nan nan -5.883269 -3.559879 -7.588882 3.447026 -2.128746 9.905511 3.286658 -0.666992 -14.311651 nan nan nan -0.491271 0.173426 8.119867 2.656237 -6.015562 2.438876 0.471316 -2.889840 -0.405109 1.359370 1.823462 4.831769 1.918956 0.055292 18.781341 -24.270891 -16.277915 2.982282 -54.799661 -27.630691 13.462195 41.507354 -58.897059 -35.411676 6.822348 -2.468852 -37.652527 20.738029 9.489089 3.298269 54.542057 10.040906 20.949526 -83.766370 76.370549 -61.039998 6.143327 7.998392 -19.456660 
-39.087608 211.289536 94.614777 -154.891164 -0.842791 86.895289 7.533345 4.151847 -5.984258 -3.044907 11.290830 23.846468 4.397055 13.827476 -22.505044 nan nan nan -5.825019 -3.417841 -7.739422 3.306726 -2.072821 10.095811 3.453704 -0.533557 -14.227229 nan nan nan -0.554583 0.192418 8.129387 2.687789 -5.814632 2.464328 0.559043 -2.795687 -0.516092 1.342707 1.818207 4.813735 1.869796 -0.089937 19.016200 -24.104246 -16.410767 3.037800 -55.245107 -27.413492 13.755622 42.027419 -59.046307 -35.838267 7.109329 -2.479166 -37.882804 20.627873 9.809667 3.391481 54.675017 10.352124 21.040448 -83.784883 76.375858 -60.938813 6.147733 7.939805 -19.382072 
-39.261330 211.257477 94.678352 -155.221870 -0.802109 86.959489 7.454902 4.504004 -5.623514 -3.152040 11.232699 23.136295 4.519589 13.946502 -22.379586 nan nan nan -5.812632 -3.328216 -7.973255 3.257420 -1.974998 10.256694 3.519455 -0.451194 -14.101643 nan nan nan -0.612773 0.169205 8.132329 2.655203 -5.556589 2.398429 0.613283 -2.650070 -0.768186 1.456459 2.113077 4.455202 1.927811 0.013115 19.823450 -24.233491 -16.517249 3.197210 -55.509264 -27.127340 13.935966 42.485433 -59.228901 -35.955691 7.273613 -2.229627 -37.838148 20.682943 10.087626 3.579816 54.768686 10.518774 21.072967 -83.748147 76.330676 -60.973866 6.043627 7.831146 -19.556456 
-39.438789 211.267670 94.749748 -155.435227 -0.806927 86.947776 7.341405 4.868686 -5.273583 -3.381131 10.964291 22.575512 4.574614 13.937964 -22.228536 nan nan nan -5.881804 -3.438554 -8.038770 3.268789 -1.918701 10.368466 3.449880 -0.398778 -13.997355 nan nan nan -0.719559 0.053889 8.109033 2.598121 -5.431559 2.444299 0.653917 -2.472746 -1.050976 1.540949 2.086611 4.468966 1.760520 0.289693 20.514702 -24.601580 -16.325193 3.304893 -55.421975 -26.886202 13.772844 42.279416 -59.537959 -34.970335 7.393488 -1.843790 -36.736517 20.801000 10.332885 3.753990 54.793542 10.724440 21.040246 -83.157757 76.446586 -60.458721 5.818450 7.742655 -19.211190 
-39.588490 211.291595 94.828384 -155.622884 -0.676505 87.089627 7.291499 5.812314 -5.342364 -3.345255 10.235114 22.564765 5.083765 14.004330 -22.128102 nan nan nan -5.824652 -3.592520 -8.292604 3.332226 -1.815211 10.534482 2.567558 -0.356622 -14.064489 nan nan nan -0.692290 -0.234810 7.606505 2.359360 -5.229640 3.323013 1.111428 -2.533409 -1.673414 1.383474 1.343459 4.959756 1.222710 1.014304 20.389560 -25.824014 -15.511391 3.426145 -61.511105 -27.120252 12.603462 50.344970 -56.397683 -35.023997 -2.274830 5.595884 -28.039541 20.590418 11.050318 4.006096 55.074404 10.729955 19.963352 -84.559288 76.949104 -60.632101 9.151474 6.572800 -19.998403 
-39.716087 211.309174 94.904175 -155.876209 -0.749793 87.112633 7.185225 6.038820 -5.077820 -3.452665 10.285363 22.258262 5.130819 13.869301 -22.080234 nan nan nan -5.962318 -3.675315 -8.446680 3.301926 -1.791109 10.764358 2.554424 -0.097012 -14.090349 nan nan nan -0.863732 -0.241433 7.609619 2.322098 -5.208567 3.242248 1.102803 -2.425564 -1.757311 1.594532 1.412119 5.173357 1.207499 0.849817 20.506855 -25.719415 -15.175515 3.447354 -61.695809 -26.898621 12.580672 50.568746 -57.046069 -34.708916 -2.688987 5.389891 -27.588539 20.650328 11.161741 4.082788 55.341575 11.015584 20.055026 -84.386231 77.068056 -60.333169 9.507899 6.494422 -20.052531 
-39.894123 211.317368 94.971817 -156.129939 -0.773791 87.082757 7.104320 6.149249 -4.680713 -3.547565 10.404112 21.811005 5.194268 13.763115 -22.003186 nan nan nan -6.084804 -3.733566 -8.425110 3.268918 -1.772434 10.842554 2.555458 0.073917 -13.942785 nan nan nan -0.909303 -0.221356 7.559434 2.293230 -5.136219 3.293927 1.080242 -2.362754 -1.831017 1.710354 1.413808 5.238651 1.146967 0.704433 20.699619 -25.692658 -15.049558 3.497139 -62.026597 -26.683569 12.792221 51.085151 -57.481952 -34.828510 -2.705984 5.253982 -27.584983 20.688233 11.231125 4.040886 55.554873 11.271042 20.203913 -84.105960 77.099507 -59.874486 9.606577 6.374492 -20.036745 
-40.050716 211.325867 95.027977 -156.361278 -0.787613 87.018251 7.034064 6.236691 -4.253517 -3.620542 10.440174 21.343749 5.080711 13.678288 -21.896959 nan nan nan -6.181347 -3.715285 -8.366295 3.237225 -1.725721 10.927816 2.662326 0.150380 -13.801417 nan nan nan -1.003107 -0.233025 7.600810 2.289742 -5.075293 3.276183 1.089764 -2.293975 -1.850198 1.821059 1.443481 5.256448 1.068969 0.511473 20.870545 -25.640109 -14.926095 3.522076 -62.362274 -26.473379 12.983640 51.632255 -57.923875 -35.084755 -2.875733 5.143832 -27.674967 20.732064 11.311492 3.954514 55.811870 11.494199 20.374319 -83.738608 77.114423 -59.342976 9.502148 6.250024 -19.883643 
